# xmcd
#
# Track frame offsets:
#	150
#	19298
#	36868
#	67953
#	82698
#	109115
#	129750
#	153675
#	176008
#
# Disc length: 2678 seconds
#
# Revision: 0
# Processed by: cddbd v1.4PL0 Copyright (c) Steve Scherf et al.
# Submitted via: audiograbber 1.80
#
DISCID=680a7409
DTITLE=Chuck LeMonds - Colour Of The Sun
DYEAR=1900
DGENRE=
TTITLE0=That The Way
TTITLE1=Colour Of The Sun
TTITLE2=Oh Brother
TTITLE3=Fine Line Down The Middle
TTITLE4=Cold Spring Rain
TTITLE5=If The Mother Was Working
TTITLE6=Up All Night
TTITLE7=I Know We´ll Get There
TTITLE8=Full Deck Of Cards
EXTD=
EXTT0=
EXTT1=
EXTT2=
EXTT3=
EXTT4=
EXTT5=
EXTT6=
EXTT7=
EXTT8=
PLAYORDER=
